<?xml version="1.0" standalone="no"?>
<!DOCTYPE svg PUBLIC "-//W3C//DTD SVG 20010904//EN"
 "http://www.w3.org/TR/2001/REC-SVG-20010904/DTD/svg10.dtd">
<svg version="1.0" xmlns="http://www.w3.org/2000/svg"
 width="1000.000000pt" height="1000.000000pt" viewBox="0 0 1000.000000 1000.000000"
 preserveAspectRatio="xMidYMid meet">
<metadata>
Created by potrace 1.11, written by Peter Selinger 2001-2013
</metadata>
<g transform="translate(0.000000,1000.000000) scale(0.100000,-0.100000)"
fill="#000000" stroke="none">
<path d="M5325 9441 c-3 -2 -16 -5 -29 -7 -43 -4 -142 -22 -168 -30 -9 -3 -25
-7 -35 -9 -82 -18 -333 -117 -424 -168 -24 -14 -60 -33 -79 -43 -66 -35 -180
-116 -180 -126 0 -6 -3 -9 -6 -5 -5 5 -25 -10 -79 -59 -26 -24 -27 -22 50 -79
45 -33 165 -152 165 -163 0 -5 8 -17 18 -28 26 -29 66 -93 93 -149 13 -27 29
-53 34 -57 6 -4 6 -8 1 -8 -5 0 -3 -8 4 -17 7 -10 -25 22 -71 72 -129 137
-237 245 -245 245 -3 0 -16 10 -28 23 -22 23 -81 64 -81 56 0 -2 -10 5 -22 16
-29 27 -123 77 -226 121 -72 31 -104 41 -182 59 -69 17 -475 27 -475 12 0 -4
-8 -3 -19 2 -10 6 -21 8 -23 5 -3 -3 -50 -7 -104 -9 -55 -3 -110 -7 -124 -10
-14 -4 -34 -8 -45 -10 -11 -2 -29 -6 -40 -8 -28 -7 -163 -53 -200 -68 -16 -7
-32 -13 -35 -14 -68 -24 -220 -104 -375 -198 -135 -82 -320 -259 -414 -396
-44 -66 -108 -195 -120 -243 -1 -4 -8 -26 -16 -48 -8 -22 -17 -59 -20 -82 -3
-24 -8 -51 -11 -61 -8 -24 -7 -201 0 -254 20 -144 87 -316 169 -430 17 -25 37
-52 42 -61 55 -87 295 -309 439 -408 118 -80 202 -134 226 -146 14 -7 43 -24
65 -37 103 -65 408 -217 622 -311 76 -33 147 -65 158 -70 60 -28 222 -92 233
-93 6 0 12 -4 12 -9 0 -4 9 -8 19 -8 11 0 22 -4 25 -9 3 -5 17 -12 30 -15 33
-8 156 -65 156 -72 0 -4 -7 -3 -17 0 -9 4 -32 9 -52 12 -20 3 -39 8 -42 10 -4
2 -24 6 -45 9 -22 4 -52 10 -69 15 -16 5 -66 14 -110 20 -44 6 -91 14 -105 16
-14 3 -40 7 -59 9 -19 2 -50 7 -70 10 -32 5 -62 9 -176 20 -16 2 -30 4 -30 5
0 5 -365 23 -465 23 -47 0 -141 -3 -210 -7 -69 -5 -142 -9 -162 -9 -21 -1 -38
-4 -38 -7 0 -4 -10 -6 -22 -6 -13 -1 -39 -4 -58 -8 -19 -4 -49 -9 -67 -11 -18
-2 -43 -9 -55 -16 -13 -7 -24 -12 -25 -11 -7 4 -63 -11 -63 -17 0 -4 -10 -7
-22 -8 -29 -3 -181 -64 -190 -77 -4 -6 -8 -8 -8 -4 0 23 -295 -158 -362 -222
-14 -14 -38 -34 -51 -45 -14 -11 -23 -23 -20 -27 2 -5 0 -8 -6 -8 -26 0 -169
-178 -242 -302 -30 -50 -54 -94 -55 -97 0 -3 -11 -28 -23 -56 -37 -81 -78
-233 -87 -325 -7 -71 -4 -207 7 -265 6 -33 12 -70 14 -82 8 -57 97 -269 118
-284 5 -3 7 -8 6 -10 -5 -7 81 -131 135 -194 78 -92 238 -243 284 -269 10 -5
19 -12 22 -16 3 -4 34 -27 70 -51 36 -24 67 -46 70 -49 3 -3 25 -16 50 -29 25
-14 47 -27 50 -30 16 -18 311 -151 336 -151 8 0 14 -5 14 -12 0 -6 2 -9 5 -6
3 3 41 -6 83 -19 42 -14 84 -26 92 -29 17 -4 94 -23 98 -24 1 0 3 0 5 -1 9 -3
46 -11 67 -14 59 -11 206 -43 221 -49 11 -5 19 -32 28 -89 7 -45 15 -93 17
-107 3 -14 9 -51 15 -82 5 -32 14 -69 19 -82 5 -13 6 -26 3 -29 -3 -3 -1 -12
3 -19 5 -7 10 -24 12 -38 2 -13 8 -30 14 -37 6 -7 7 -13 4 -13 -4 0 -2 -9 4
-21 6 -11 13 -28 15 -37 3 -20 85 -195 94 -202 3 -3 12 -16 19 -30 41 -79 174
-232 277 -316 63 -52 190 -137 233 -155 17 -8 32 -17 32 -21 0 -5 8 -8 18 -8
10 0 22 -4 27 -9 17 -16 227 -93 295 -107 27 -6 33 -8 70 -17 29 -8 66 -15
160 -31 14 -3 25 -5 25 -6 0 -3 127 -13 167 -14 21 -1 38 -4 38 -8 0 -4 10 -4
23 1 14 5 30 5 40 0 9 -6 17 -6 17 -2 0 4 28 9 63 10 53 1 112 8 112 13 0 1
14 3 30 5 26 4 42 7 90 21 6 2 19 5 30 8 75 19 252 91 276 112 9 8 19 11 22 7
4 -3 7 -1 7 5 0 7 5 12 11 12 12 0 88 51 134 90 106 88 229 233 275 323 14 26
28 47 32 47 5 0 8 6 8 13 0 7 9 32 20 55 29 60 81 202 74 202 -4 0 -1 7 6 15
7 9 10 18 7 22 -4 3 -2 12 4 20 6 7 8 13 4 13 -4 0 -2 7 5 15 7 8 10 15 7 15
-3 0 -1 15 4 33 5 17 12 55 15 82 7 53 12 80 14 80 12 0 21 559 9 591 -4 11
-3 27 1 34 5 8 6 19 2 25 -8 13 -11 27 -17 95 -2 30 -7 71 -10 90 -3 19 -6 44
-6 54 0 11 -5 28 -10 39 -8 14 -8 17 0 13 8 -5 8 0 2 16 -4 13 -11 45 -15 71
-4 27 -9 59 -12 70 -2 12 -6 33 -9 47 -3 14 -7 34 -9 45 -4 18 -43 190 -51
225 -1 8 -9 35 -16 60 -7 25 -14 52 -15 60 -3 16 -14 55 -38 139 -9 29 -16 61
-16 70 0 9 -5 22 -12 29 -7 7 -9 12 -6 12 3 0 -14 64 -39 143 -47 152 -46 147
-58 192 -4 17 -12 36 -18 43 -5 6 -7 12 -4 12 4 0 -2 20 -13 45 -11 25 -17 45
-15 45 13 0 -91 184 -126 223 -31 36 -164 127 -185 127 -2 0 -26 10 -52 21
-103 47 -129 58 -167 75 -22 9 -42 18 -45 18 -3 1 -49 17 -102 35 -146 49
-126 65 33 27 37 -8 78 -17 90 -20 13 -3 51 -12 84 -21 52 -13 73 -18 130 -29
6 -1 26 -7 45 -13 31 -10 81 -20 145 -27 48 -5 136 35 210 97 33 27 161 117
168 117 18 0 -46 -80 -147 -183 -15 -17 -50 -62 -76 -100 -40 -58 -47 -75 -39
-94 5 -13 7 -23 4 -23 -8 0 67 -203 119 -322 9 -20 16 -39 16 -43 0 -4 7 -23
16 -43 24 -52 67 -149 94 -207 13 -27 24 -55 26 -60 1 -6 37 -85 81 -175 44
-91 85 -180 92 -197 8 -18 17 -33 22 -33 5 0 8 -3 7 -7 -2 -7 23 -60 60 -130
7 -13 17 -32 23 -44 41 -81 54 -105 58 -109 4 -3 21 -34 40 -70 37 -71 131
-228 186 -312 20 -29 41 -61 48 -72 33 -51 178 -237 222 -285 98 -108 233
-236 310 -296 21 -16 50 -40 66 -52 15 -13 32 -23 38 -23 6 0 11 -4 11 -9 0
-4 51 -33 113 -64 146 -74 294 -116 424 -121 18 -1 34 -4 37 -6 7 -7 267 -3
328 5 29 4 67 8 83 10 17 2 42 6 58 9 15 3 39 8 55 11 73 15 317 107 332 126
3 3 21 14 40 24 69 35 187 130 285 229 112 112 185 210 215 286 6 14 14 32 19
41 14 25 50 160 56 214 26 214 -5 417 -86 579 -33 64 -95 159 -128 193 -12 12
-21 26 -21 30 0 5 -9 15 -20 23 -11 8 -20 18 -20 22 0 4 -9 18 -19 30 -61 71
-70 83 -66 86 3 3 30 -15 62 -39 80 -60 82 -61 109 -86 13 -12 24 -20 24 -18
0 2 13 -10 29 -26 27 -27 32 -28 58 -17 15 7 31 17 35 23 4 5 8 6 8 2 0 -7
133 125 155 154 51 68 65 92 84 147 24 67 31 95 35 127 1 11 4 25 7 30 3 6 5
38 5 73 -1 34 3 62 7 62 5 0 6 4 3 8 -3 5 -8 40 -11 79 -3 38 -8 81 -10 94 -3
13 -8 40 -11 59 -3 19 -13 58 -22 85 -9 28 -17 52 -17 55 -11 42 -21 71 -36
101 -10 20 -15 39 -12 43 4 3 1 6 -5 6 -7 0 -12 6 -12 14 0 17 -42 100 -53
104 -4 2 -5 8 -1 13 3 5 0 9 -5 9 -6 0 -11 6 -11 13 0 13 -91 153 -140 216
-124 160 -280 304 -414 385 -51 31 -191 94 -221 101 -5 1 -30 8 -55 15 -52 15
-43 13 -140 33 -41 9 -93 18 -115 21 -22 4 -53 9 -70 11 -141 23 -496 23 -635
1 -14 -2 -47 -7 -75 -11 -64 -8 -245 -44 -265 -52 -8 -3 -22 -7 -30 -8 -8 -1
-31 -6 -50 -10 -44 -11 -42 -11 -60 -18 -8 -4 -42 -15 -75 -26 -99 -31 -208
-77 -315 -131 -118 -60 -270 -151 -270 -162 0 -4 -5 -8 -10 -8 -6 0 -52 -27
-103 -61 -104 -69 -109 -77 83 121 90 93 149 155 347 368 37 39 108 122 138
160 11 14 27 33 35 42 28 31 192 270 185 270 -2 0 15 33 39 73 47 81 119 227
147 302 11 28 24 59 29 70 21 47 64 201 76 270 1 11 5 31 9 45 3 14 7 39 9 57
3 18 7 37 11 43 3 5 1 10 -5 10 -6 0 -8 5 -4 12 9 15 13 218 5 218 -3 0 -7 17
-8 38 -2 35 -9 77 -13 77 -1 0 -3 9 -4 20 -6 47 -76 236 -110 295 -11 19 -27
49 -36 65 -42 81 -147 214 -231 295 -57 55 -111 100 -119 100 -5 0 -10 4 -12
8 -4 11 -124 92 -137 92 -5 0 -11 4 -13 8 -10 25 -259 121 -333 128 -11 2 -31
5 -45 8 -47 12 -95 19 -127 20 -18 0 -33 3 -33 6 0 7 -409 8 -415 1z"/>
<path d="M2168 2974 c-57 -47 -177 -173 -288 -304 -25 -30 -52 -61 -60 -69 -8
-9 -40 -48 -70 -86 -30 -39 -57 -72 -60 -75 -3 -3 -32 -41 -65 -85 -33 -44
-63 -82 -66 -85 -5 -4 -25 -32 -103 -145 -12 -16 -23 -32 -26 -35 -11 -11 -50
-70 -50 -75 0 -3 -8 -15 -18 -26 -11 -10 -25 -32 -33 -47 -8 -15 -16 -29 -19
-32 -12 -11 -60 -90 -60 -98 0 -4 -8 -17 -18 -28 -10 -10 -21 -26 -25 -34 -4
-8 -18 -33 -32 -55 -22 -35 -41 -69 -95 -167 -52 -95 -200 -401 -200 -414 0
-2 -7 -21 -16 -42 -10 -20 -19 -45 -20 -55 -2 -10 -11 -31 -19 -46 -8 -16 -16
-39 -18 -52 -3 -14 -12 -41 -20 -62 -9 -20 -14 -37 -12 -37 3 0 0 -12 -6 -27
-6 -16 -12 -39 -14 -53 -5 -29 -24 -108 -32 -130 -3 -8 -6 -28 -7 -44 l-1 -29
276 0 c152 0 281 3 287 7 8 5 9 13 3 25 -6 10 -6 23 -1 31 5 8 5 21 0 30 -5 9
-5 22 0 30 5 8 5 21 0 31 -5 9 -7 19 -4 21 3 3 7 39 10 79 7 110 16 170 35
234 4 17 18 68 30 115 19 78 51 183 66 220 3 8 5 21 4 28 -1 6 2 12 7 12 5 0
9 6 9 13 0 14 44 134 76 207 10 25 25 59 32 75 19 44 74 155 93 190 10 17 36
63 60 103 23 41 42 76 42 78 0 3 5 10 10 17 14 16 148 228 157 247 8 19 232
350 247 366 6 6 18 22 26 34 8 12 20 28 25 34 22 24 65 85 65 91 0 4 7 13 15
21 34 35 8 102 -48 123 -23 9 -32 6 -69 -25z"/>
</g>
</svg>
